<?xml version="1.0" encoding="UTF-8"?>
<svg xmlns="http://www.w3.org/2000/svg" xmlns:xlink="http://www.w3.org/1999/xlink" width="36px" height="36px" viewBox="0 0 36 36" version="1.1">
<g id="surface1">
<path style=" stroke:none;fill-rule:nonzero;fill:#3d5a80;fill-opacity:1;" d="M 18 0.359375 C 8.257812 0.359375 0.359375 8.257812 0.359375 18 C 0.359375 27.746094 8.257812 35.640625 18 35.640625 C 27.746094 35.640625 35.640625 27.746094 35.640625 18 C 35.640625 8.257812 27.746094 0.359375 18 0.359375 Z M 21.761719 24.800781 C 22.21875 25.257812 22.21875 26.007812 21.761719 26.464844 C 21.304688 26.921875 20.554688 26.921875 20.097656 26.464844 L 12.472656 18.835938 C 12.242188 18.605469 12.132812 18.300781 12.132812 18 C 12.132812 17.699219 12.242188 17.394531 12.472656 17.164062 L 20.101562 9.535156 C 20.558594 9.078125 21.308594 9.078125 21.765625 9.535156 C 22.222656 9.992188 22.222656 10.742188 21.765625 11.199219 L 14.964844 18 Z M 21.761719 24.800781 "/>
</g>
</svg>
