<?xml version="1.0" encoding="UTF-8"?>
<svg xmlns="http://www.w3.org/2000/svg" xmlns:xlink="http://www.w3.org/1999/xlink" width="36px" height="36px" viewBox="0 0 36 36" version="1.1">
<g id="surface1">
<path style=" stroke:none;fill-rule:evenodd;fill:#3d5a80;fill-opacity:1;" d="M 25.410156 7.410156 C 26.289062 6.53125 27.710938 6.53125 28.589844 7.410156 C 29.46875 8.289062 29.46875 9.710938 28.589844 10.589844 L 21.183594 18 L 28.589844 25.410156 C 29.46875 26.289062 29.46875 27.710938 28.589844 28.589844 C 27.710938 29.46875 26.289062 29.46875 25.410156 28.589844 L 18 21.183594 L 10.589844 28.589844 C 9.710938 29.46875 8.289062 29.46875 7.410156 28.589844 C 6.53125 27.710938 6.53125 26.289062 7.410156 25.410156 L 14.816406 18 L 7.410156 10.589844 C 6.53125 9.710938 6.53125 8.289062 7.410156 7.410156 C 8.289062 6.53125 9.710938 6.53125 10.589844 7.410156 L 18 14.816406 Z M 25.410156 7.410156 "/>
</g>
</svg>
    