<?xml version="1.0" encoding="UTF-8"?>
<svg xmlns="http://www.w3.org/2000/svg" xmlns:xlink="http://www.w3.org/1999/xlink" width="48px" height="26px" viewBox="0 0 48 26" version="1.1">
<defs>
<clipPath id="clip1">
  <path d="M 0.808594 0.542969 L 47.191406 0.542969 L 47.191406 25.457031 L 0.808594 25.457031 Z M 0.808594 0.542969 "/>
</clipPath>
<clipPath id="clip2">
  <path d="M 0.9375 12.988281 C 0.9375 19.785156 11.265625 25.296875 24.007812 25.296875 C 36.746094 25.296875 47.078125 19.785156 47.078125 12.988281 C 47.078125 6.1875 36.746094 0.675781 24.007812 0.675781 C 11.265625 0.675781 0.9375 6.1875 0.9375 12.988281 "/>
</clipPath>
<radialGradient id="radial0" gradientUnits="userSpaceOnUse" cx="0" cy="0" fx="0" fy="0" r="1" gradientTransform="matrix(30.293552,0,0,30.727556,14.788225,5.004651)">
<stop offset="0" style="stop-color:rgb(68.235294%,69.803922%,83.529412%);stop-opacity:1;"/>
<stop offset="0.3" style="stop-color:rgb(68.235294%,69.803922%,83.529412%);stop-opacity:1;"/>
<stop offset="0.75" style="stop-color:rgb(28.235294%,29.803922%,53.72549%);stop-opacity:1;"/>
<stop offset="1" style="stop-color:rgb(28.235294%,29.803922%,53.72549%);stop-opacity:1;"/>
</radialGradient>
</defs>
<g id="surface1">
<g clip-path="url(#clip1)" clip-rule="nonzero">
<g clip-path="url(#clip2)" clip-rule="nonzero">
<path style=" stroke:none;fill-rule:nonzero;fill:url(#radial0);" d="M 0.9375 12.988281 C 0.9375 19.785156 11.265625 25.296875 24.007812 25.296875 C 36.746094 25.296875 47.078125 19.785156 47.078125 12.988281 C 47.078125 6.1875 36.746094 0.675781 24.007812 0.675781 C 11.265625 0.675781 0.9375 6.1875 0.9375 12.988281 "/>
</g>
</g>
<path style=" stroke:none;fill-rule:nonzero;fill:rgb(46.666667%,48.235294%,70.196078%);fill-opacity:1;" d="M 24.007812 24.382812 C 36.25 24.382812 46.175781 19.28125 46.175781 12.988281 C 46.175781 6.691406 36.25 1.589844 24.007812 1.589844 C 11.765625 1.589844 1.839844 6.691406 1.839844 12.988281 C 1.839844 19.28125 11.765625 24.382812 24.007812 24.382812 "/>
<path style=" stroke:none;fill-rule:nonzero;fill:rgb(0%,0%,0%);fill-opacity:1;" d="M 13.46875 14.398438 C 14.476562 14.398438 15.230469 14.210938 15.707031 13.839844 C 16.175781 13.472656 16.5 12.835938 16.671875 11.949219 C 16.828125 11.117188 16.769531 10.539062 16.492188 10.226562 C 16.207031 9.90625 15.59375 9.742188 14.664062 9.742188 L 13.054688 9.742188 L 12.164062 14.398438 Z M 8.210938 20.132812 C 8.132812 20.132812 8.0625 20.097656 8.015625 20.042969 C 7.96875 19.984375 7.949219 19.90625 7.964844 19.832031 L 10.328125 7.496094 C 10.351562 7.375 10.453125 7.289062 10.574219 7.289062 L 15.667969 7.289062 C 17.269531 7.289062 18.460938 7.730469 19.210938 8.601562 C 19.960938 9.476562 20.195312 10.699219 19.898438 12.234375 C 19.78125 12.859375 19.574219 13.441406 19.289062 13.960938 C 19 14.480469 18.621094 14.964844 18.160156 15.394531 C 17.609375 15.917969 16.984375 16.296875 16.304688 16.519531 C 15.636719 16.742188 14.777344 16.851562 13.753906 16.851562 L 11.691406 16.851562 L 11.105469 19.925781 C 11.082031 20.046875 10.976562 20.132812 10.859375 20.132812 Z M 8.210938 20.132812 "/>
<path style=" stroke:none;fill-rule:nonzero;fill:rgb(100%,100%,100%);fill-opacity:1;" d="M 13.261719 9.996094 L 14.664062 9.996094 C 15.785156 9.996094 16.171875 10.246094 16.304688 10.394531 C 16.523438 10.644531 16.566406 11.164062 16.425781 11.898438 C 16.265625 12.726562 15.972656 13.308594 15.550781 13.640625 C 15.121094 13.976562 14.421875 14.144531 13.46875 14.144531 L 12.46875 14.144531 Z M 15.667969 7.035156 L 10.574219 7.035156 C 10.332031 7.035156 10.128906 7.207031 10.082031 7.445312 L 7.71875 19.785156 C 7.691406 19.933594 7.726562 20.085938 7.824219 20.203125 C 7.917969 20.320312 8.058594 20.386719 8.210938 20.386719 L 10.859375 20.386719 C 11.097656 20.386719 11.304688 20.214844 11.347656 19.976562 L 11.898438 17.105469 L 13.753906 17.105469 C 14.804688 17.105469 15.6875 16.992188 16.382812 16.761719 C 17.097656 16.527344 17.75 16.128906 18.332031 15.578125 C 18.8125 15.128906 19.207031 14.628906 19.507812 14.085938 C 19.804688 13.539062 20.019531 12.933594 20.148438 12.28125 C 20.457031 10.664062 20.203125 9.371094 19.398438 8.433594 C 18.597656 7.507812 17.34375 7.035156 15.667969 7.035156 M 11.859375 14.652344 L 13.46875 14.652344 C 14.539062 14.652344 15.335938 14.449219 15.859375 14.042969 C 16.378906 13.632812 16.734375 12.953125 16.917969 11.996094 C 17.09375 11.078125 17.011719 10.433594 16.675781 10.054688 C 16.34375 9.679688 15.671875 9.488281 14.664062 9.488281 L 12.847656 9.488281 L 11.859375 14.652344 M 15.667969 7.542969 C 17.199219 7.542969 18.316406 7.953125 19.019531 8.769531 C 19.722656 9.582031 19.933594 10.722656 19.652344 12.183594 C 19.539062 12.785156 19.34375 13.339844 19.066406 13.835938 C 18.792969 14.335938 18.433594 14.792969 17.992188 15.207031 C 17.460938 15.707031 16.875 16.066406 16.226562 16.28125 C 15.582031 16.492188 14.757812 16.597656 13.753906 16.597656 L 11.484375 16.597656 L 10.859375 19.878906 L 8.210938 19.878906 L 10.574219 7.542969 L 15.667969 7.542969 "/>
<path style=" stroke:none;fill-rule:nonzero;fill:rgb(0%,0%,0%);fill-opacity:1;" d="M 25.972656 16.851562 C 25.898438 16.851562 25.828125 16.820312 25.78125 16.761719 C 25.734375 16.703125 25.714844 16.625 25.730469 16.550781 L 26.773438 11.09375 C 26.875 10.574219 26.847656 10.199219 26.703125 10.042969 C 26.617188 9.949219 26.351562 9.785156 25.570312 9.785156 L 23.675781 9.785156 L 22.359375 16.648438 C 22.335938 16.769531 22.234375 16.851562 22.113281 16.851562 L 19.488281 16.851562 C 19.410156 16.851562 19.34375 16.820312 19.292969 16.761719 C 19.246094 16.703125 19.226562 16.625 19.242188 16.550781 L 21.605469 4.214844 C 21.628906 4.097656 21.730469 4.007812 21.851562 4.007812 L 24.476562 4.007812 C 24.554688 4.007812 24.625 4.042969 24.671875 4.101562 C 24.71875 4.160156 24.738281 4.238281 24.726562 4.3125 L 24.152344 7.289062 L 26.191406 7.289062 C 27.742188 7.289062 28.796875 7.566406 29.410156 8.136719 C 30.035156 8.722656 30.230469 9.652344 29.988281 10.90625 L 28.890625 16.648438 C 28.867188 16.769531 28.765625 16.851562 28.644531 16.851562 Z M 25.972656 16.851562 "/>
<path style=" stroke:none;fill-rule:nonzero;fill:rgb(100%,100%,100%);fill-opacity:1;" d="M 24.476562 3.753906 L 21.851562 3.753906 C 21.609375 3.753906 21.40625 3.929688 21.359375 4.167969 L 18.996094 16.503906 C 18.96875 16.652344 19.003906 16.804688 19.101562 16.921875 C 19.195312 17.039062 19.335938 17.105469 19.488281 17.105469 L 22.113281 17.105469 C 22.355469 17.105469 22.5625 16.933594 22.609375 16.695312 L 23.882812 10.039062 L 25.570312 10.039062 C 26.351562 10.039062 26.515625 10.210938 26.523438 10.21875 C 26.566406 10.269531 26.632812 10.507812 26.527344 11.046875 L 25.484375 16.503906 C 25.453125 16.652344 25.492188 16.804688 25.589844 16.921875 C 25.683594 17.039062 25.824219 17.105469 25.972656 17.105469 L 28.644531 17.105469 C 28.882812 17.105469 29.089844 16.933594 29.136719 16.695312 L 30.234375 10.957031 C 30.492188 9.609375 30.273438 8.597656 29.582031 7.953125 C 28.917969 7.335938 27.8125 7.035156 26.191406 7.035156 L 24.457031 7.035156 L 24.972656 4.359375 C 25 4.210938 24.960938 4.058594 24.867188 3.941406 C 24.769531 3.824219 24.628906 3.753906 24.476562 3.753906 M 24.476562 4.261719 L 23.851562 7.542969 L 26.191406 7.542969 C 27.664062 7.542969 28.679688 7.804688 29.242188 8.324219 C 29.800781 8.847656 29.96875 9.691406 29.746094 10.859375 L 28.644531 16.597656 L 25.972656 16.597656 L 27.019531 11.140625 C 27.140625 10.519531 27.09375 10.097656 26.886719 9.871094 C 26.683594 9.644531 26.242188 9.53125 25.570312 9.53125 L 23.46875 9.53125 L 22.113281 16.597656 L 19.488281 16.597656 L 21.851562 4.261719 L 24.476562 4.261719 "/>
<path style=" stroke:none;fill-rule:nonzero;fill:rgb(0%,0%,0%);fill-opacity:1;" d="M 34.148438 14.398438 C 35.15625 14.398438 35.90625 14.210938 36.382812 13.839844 C 36.851562 13.472656 37.175781 12.835938 37.347656 11.949219 C 37.507812 11.117188 37.449219 10.539062 37.167969 10.226562 C 36.886719 9.90625 36.269531 9.742188 35.34375 9.742188 L 33.734375 9.742188 L 32.84375 14.398438 Z M 28.886719 20.132812 C 28.8125 20.132812 28.742188 20.097656 28.695312 20.042969 C 28.644531 19.984375 28.625 19.90625 28.640625 19.832031 L 31.003906 7.496094 C 31.027344 7.375 31.132812 7.289062 31.25 7.289062 L 36.34375 7.289062 C 37.945312 7.289062 39.136719 7.730469 39.886719 8.601562 C 40.640625 9.476562 40.871094 10.699219 40.578125 12.234375 C 40.457031 12.859375 40.25 13.441406 39.964844 13.960938 C 39.679688 14.480469 39.300781 14.964844 38.835938 15.394531 C 38.285156 15.917969 37.660156 16.296875 36.980469 16.519531 C 36.3125 16.742188 35.457031 16.851562 34.433594 16.851562 L 32.371094 16.851562 L 31.78125 19.925781 C 31.757812 20.046875 31.65625 20.132812 31.535156 20.132812 Z M 28.886719 20.132812 "/>
<path style=" stroke:none;fill-rule:nonzero;fill:rgb(100%,100%,100%);fill-opacity:1;" d="M 33.941406 9.996094 L 35.34375 9.996094 C 36.460938 9.996094 36.851562 10.246094 36.980469 10.394531 C 37.203125 10.644531 37.242188 11.164062 37.101562 11.898438 C 36.945312 12.726562 36.652344 13.308594 36.230469 13.640625 C 35.800781 13.976562 35.097656 14.144531 34.148438 14.144531 L 33.144531 14.144531 Z M 36.34375 7.035156 L 31.25 7.035156 C 31.011719 7.035156 30.804688 7.207031 30.757812 7.445312 L 28.394531 19.785156 C 28.367188 19.933594 28.40625 20.085938 28.5 20.203125 C 28.59375 20.320312 28.738281 20.386719 28.886719 20.386719 L 31.535156 20.386719 C 31.777344 20.386719 31.984375 20.214844 32.027344 19.976562 L 32.578125 17.105469 L 34.433594 17.105469 C 35.484375 17.105469 36.367188 16.992188 37.058594 16.761719 C 37.773438 16.527344 38.429688 16.128906 39.007812 15.578125 C 39.488281 15.128906 39.886719 14.628906 40.183594 14.085938 C 40.484375 13.539062 40.699219 12.933594 40.824219 12.28125 C 41.132812 10.664062 40.882812 9.371094 40.074219 8.433594 C 39.277344 7.507812 38.023438 7.035156 36.34375 7.035156 M 32.535156 14.652344 L 34.148438 14.652344 C 35.214844 14.652344 36.011719 14.449219 36.535156 14.042969 C 37.058594 13.632812 37.410156 12.953125 37.59375 11.996094 C 37.769531 11.078125 37.691406 10.433594 37.355469 10.054688 C 37.019531 9.679688 36.347656 9.488281 35.34375 9.488281 L 33.527344 9.488281 L 32.535156 14.652344 M 36.34375 7.542969 C 37.878906 7.542969 38.996094 7.953125 39.699219 8.769531 C 40.402344 9.582031 40.613281 10.722656 40.332031 12.183594 C 40.21875 12.785156 40.023438 13.339844 39.746094 13.835938 C 39.472656 14.335938 39.113281 14.792969 38.667969 15.207031 C 38.140625 15.707031 37.550781 16.066406 36.90625 16.28125 C 36.257812 16.492188 35.433594 16.597656 34.433594 16.597656 L 32.164062 16.597656 L 31.535156 19.878906 L 28.886719 19.878906 L 31.25 7.542969 L 36.34375 7.542969 "/>
</g>
</svg>
